# xmcd
#
# Track frame offsets:
#	150
#	15374
#	30060
#	45651
#	61546
#	75186
#	92000
#	102518
#	115730
#	129851
#	152152
#	168764
#	182259
#	200647
#	221468
#	238467
#
# Disc length: 3391 seconds
#
# Revision: 0
# Processed by: cddbd v1.5.2PL0 Copyright (c) Steve Scherf et al.
# Submitted via: dBpowerAMP V4.0
#
DISCID=b30d3d10
DTITLE=Daniel - Celebridade
DYEAR=1900
DGENRE=
TTITLE0=Estourou um cano
TTITLE1=Dengo
TTITLE2=É Gol
TTITLE3=Eu sem você
TTITLE4=Brasil, samba e forró
TTITLE5=A ferro e fogo
TTITLE6=Falou e Disse
TTITLE7=Bota pra moer
TTITLE8=Cabelo louro
TTITLE9=Estou apaixonado
TTITLE10=Dá-me, dá-me
TTITLE11=Moreninha Linda
TTITLE12=Só seu amor não vai embora
TTITLE13=Um homem apaixonado
TTITLE14=Quando o coração se apaixona
TTITLE15=Eu sem você
EXTD=Celebridade
EXTT0=
EXTT1=
EXTT2=
EXTT3=
EXTT4=
EXTT5=
EXTT6=
EXTT7=
EXTT8=
EXTT9=
EXTT10=
EXTT11=
EXTT12=
EXTT13=
EXTT14=
EXTT15=
PLAYORDER=
